<svg width="29" height="25" viewBox="0 0 29 25" fill="none" xmlns="http://www.w3.org/2000/svg">
<path d="M0.892857 5.35714H24.1071C24.6004 5.35714 25 4.95759 25 4.46429V0.892857C25 0.399554 24.6004 0 24.1071 0H0.892857C0.399554 0 0 0.399554 0 0.892857V4.46429C0 4.95759 0.399554 5.35714 0.892857 5.35714ZM27.6786 9.82143H4.46429C3.97098 9.82143 3.57143 10.221 3.57143 10.7143V14.2857C3.57143 14.779 3.97098 15.1786 4.46429 15.1786H27.6786C28.1719 15.1786 28.5714 14.779 28.5714 14.2857V10.7143C28.5714 10.221 28.1719 9.82143 27.6786 9.82143ZM24.1071 19.6429H0.892857C0.399554 19.6429 0 20.0424 0 20.5357V24.1071C0 24.6004 0.399554 25 0.892857 25H24.1071C24.6004 25 25 24.6004 25 24.1071V20.5357C25 20.0424 24.6004 19.6429 24.1071 19.6429Z" fill="#F6F7EB"/>
</svg>
