<svg width="23" height="20" viewBox="0 0 23 20" fill="none" xmlns="http://www.w3.org/2000/svg">
<path d="M19.1845 7.14286H18.6203L14.7841 1.07232C14.5725 0.737761 14.3043 0.467683 13.9992 0.282068C13.6941 0.0964536 13.36 5.35757e-05 13.0215 0H5.47781C4.55491 0 3.72511 0.711161 3.38233 1.79598L1.69275 7.24375C0.720829 7.5625 0 8.67009 0 10V15C0 15.3946 0.252502 15.7143 0.56425 15.7143H2.257C2.257 18.0813 3.77272 20 5.6425 20C7.51228 20 9.028 18.0813 9.028 15.7143H13.542C13.542 18.0813 15.0577 20 16.9275 20C18.7973 20 20.313 18.0813 20.313 15.7143H22.0057C22.3175 15.7143 22.57 15.3946 22.57 15V11.4286C22.57 9.06161 21.0543 7.14286 19.1845 7.14286ZM5.6425 17.8571C4.70902 17.8571 3.94975 16.896 3.94975 15.7143C3.94975 14.5326 4.70902 13.5714 5.6425 13.5714C6.57598 13.5714 7.33525 14.5326 7.33525 15.7143C7.33525 16.896 6.57598 17.8571 5.6425 17.8571ZM8.18163 7.14286H4.12361L5.47781 2.85714H8.18163V7.14286ZM9.87437 7.14286V2.85714H13.0215L15.7299 7.14286H9.87437ZM16.9275 17.8571C15.994 17.8571 15.2347 16.896 15.2347 15.7143C15.2347 14.5326 15.994 13.5714 16.9275 13.5714C17.861 13.5714 18.6203 14.5326 18.6203 15.7143C18.6203 16.896 17.861 17.8571 16.9275 17.8571Z" fill="#44BBA4"/>
</svg>
