<svg width="23" height="25" viewBox="0 0 23 25" fill="none" xmlns="http://www.w3.org/2000/svg">
<path fill-rule="evenodd" clip-rule="evenodd" d="M18.945 1.83621C17.9074 2.04153 16.5051 2.55912 14.5224 3.29429L9.64549 5.10262C9.23469 5.25493 8.79073 5.00798 8.65381 4.55104C8.5169 4.09411 8.73889 3.60022 9.14961 3.44791L14.0937 1.61469C15.9941 0.909967 17.5059 0.349389 18.6704 0.118967C19.8428 -0.113048 20.934 -0.0677219 21.7341 0.822244C22.5341 1.71222 22.5749 2.92614 22.3663 4.23038C22.1592 5.52571 21.6553 7.2074 21.0217 9.32151L20.9994 9.39612C20.8624 9.85306 20.4184 10.1 20.0077 9.94768C19.5969 9.79536 19.375 9.30147 19.5119 8.84454C20.1727 6.63904 20.6381 5.07902 20.8226 3.92487C21.0082 2.76441 20.8586 2.31498 20.6255 2.05561C20.3923 1.79624 19.9881 1.62978 18.945 1.83621ZM5.26439 5.80783C5.40131 6.26477 5.17932 6.75866 4.76856 6.91096C3.65981 7.32208 2.90057 7.60538 2.37063 7.88846C1.84452 8.16951 1.70451 8.3702 1.65061 8.51507C1.60517 8.63721 1.57769 8.76669 1.56923 8.89854C1.55921 9.05492 1.60374 9.30406 1.96132 9.81716C2.32149 10.334 2.88669 10.9651 3.7131 11.8844L4.00853 12.213C4.02265 12.2287 4.03662 12.2443 4.05043 12.2596C4.27582 12.5101 4.45935 12.7139 4.60271 12.9488C4.88344 13.4087 5.04279 13.9467 5.06271 14.5022C5.07288 14.7858 5.03422 15.0712 4.98677 15.4216C4.98386 15.443 4.98092 15.4648 4.97795 15.4867C4.87424 16.2555 4.802 16.7934 4.76851 17.2129C4.73521 17.63 4.7473 17.8591 4.78039 18.0193C4.95418 18.8608 5.53961 19.5212 6.29349 19.7263C6.43701 19.7654 6.6428 19.782 7.01824 19.7509C7.39578 19.7196 7.88034 19.6468 8.57277 19.5423L8.64744 19.531C8.66783 19.528 8.68797 19.5248 8.70789 19.5218C9.03366 19.4725 9.29908 19.4323 9.56228 19.4499C10.0368 19.4817 10.4952 19.6537 10.8902 19.948C11.1093 20.1114 11.2986 20.3221 11.531 20.5808C11.5452 20.5967 11.5595 20.6126 11.5741 20.6289L11.8367 20.921C12.6411 21.8158 13.1932 22.4277 13.6453 22.82C14.0946 23.2099 14.3135 23.2626 14.4493 23.2551C14.5845 23.2477 14.7173 23.2128 14.8412 23.1522C14.9656 23.0913 15.1402 22.9353 15.3853 22.363C15.632 21.7873 15.8799 20.9653 16.2396 19.7648L17.8757 14.3048C18.0127 13.8478 18.4566 13.6008 18.8674 13.7531C19.2781 13.9054 19.5001 14.3994 19.3632 14.8563L17.7101 20.373C17.3715 21.5029 17.0942 22.4286 16.8008 23.1134C16.5011 23.813 16.1156 24.434 15.4727 24.7486C15.1735 24.8951 14.8527 24.9793 14.5262 24.9972C13.8246 25.0355 13.2303 24.672 12.6809 24.1952C12.1432 23.7287 11.523 23.0387 10.7659 22.1965L10.4654 21.8623C10.1684 21.532 10.0927 21.4531 10.0176 21.3972C9.85413 21.2753 9.66431 21.2042 9.4679 21.1909C9.37769 21.1849 9.27441 21.1966 8.8583 21.2594L8.75855 21.2744C8.09704 21.3743 7.5654 21.4545 7.13492 21.4903C6.6969 21.5266 6.29998 21.5238 5.92089 21.4206C4.59135 21.0588 3.55882 19.8939 3.25229 18.4099C3.16489 17.9868 3.16788 17.5453 3.20673 17.0586C3.24492 16.5803 3.32455 15.9901 3.42364 15.2557L3.4274 15.2279C3.48781 14.7801 3.49951 14.6688 3.49603 14.5717C3.48779 14.3418 3.42183 14.1191 3.30563 13.9287C3.25652 13.8482 3.18768 13.7665 2.89986 13.4464L2.56548 13.0744C1.78761 12.2091 1.15047 11.5004 0.722156 10.8859C0.28411 10.2573 -0.0461268 9.57624 0.00528021 8.77444C0.025705 8.45589 0.092091 8.14307 0.201888 7.84799C0.47825 7.10527 1.04741 6.66043 1.69191 6.31615C2.3221 5.97949 3.17689 5.66256 4.22049 5.27562L4.27275 5.25625C4.68351 5.10395 5.12748 5.35089 5.26439 5.80783Z" fill="#ECE9E2"/>
<path fill-rule="evenodd" clip-rule="evenodd" d="M21.1987 1.41785C21.5049 1.75844 21.5049 2.31062 21.1987 2.6512L12.3138 12.5351C12.0078 12.8757 11.5114 12.8757 11.2052 12.5351C10.899 12.1945 10.899 11.6423 11.2052 11.3017L20.0901 1.41785C20.3963 1.07728 20.8926 1.07728 21.1987 1.41785ZM9.43929 14.4994C9.74546 14.84 9.74546 15.3922 9.43929 15.7328L5.51952 20.0934C5.21337 20.4339 4.71699 20.4339 4.41083 20.0934C4.10468 19.7528 4.10468 19.2006 4.41083 18.86L8.33064 14.4994C8.63681 14.1589 9.13318 14.1589 9.43929 14.4994Z" fill="#ECE9E2"/>
</svg>
