<svg width="23" height="25" viewBox="0 0 23 25" fill="none" xmlns="http://www.w3.org/2000/svg">
<path d="M18.189 10.4227C17.7421 12.4782 16.7706 14.4131 15.3015 16.1737L15.6914 16.5109C17.215 14.685 18.2233 12.6745 18.6885 10.5353L18.189 10.4227ZM18.9838 7.76115H18.4722C18.4722 8.13626 18.4558 8.51342 18.4232 8.88217L18.9327 8.92871C18.9665 8.54456 18.9838 8.15177 18.9838 7.76115ZM4.57483 0.733701C4.21666 0.998435 3.87596 1.29165 3.56212 1.60524L3.92055 1.97705C4.21629 1.68128 4.53761 1.40484 4.8753 1.15511L4.57483 0.733701ZM3.25987 2.72001L2.86097 2.39397C1.6377 3.94541 0.991048 5.80139 0.991048 7.76113H1.50258C1.5026 5.92131 2.11031 4.17812 3.25987 2.72001Z" fill="#ECE9E2"/>
<path d="M18.3063 4.69634L18.3227 4.67668C18.3089 4.66477 18.2954 4.65506 18.2817 4.64336C17.0456 1.91232 14.2399 0 10.9823 0C6.5859 0 3.00914 3.48168 3.00914 7.76113C3.00914 12.8348 6.05013 16.2744 8.60134 18.2664L8.67015 18.3202H9.19069V19.6348H7.63622V23.7743C7.63622 24.4502 8.17622 25 8.83988 25H13.0224C13.686 25 14.226 24.4502 14.226 23.7743V19.6348H12.6714V18.3202H13.3138L13.3826 18.2668C15.925 16.2907 18.9556 12.8641 18.9556 7.76115C18.9556 6.67309 18.7234 5.63711 18.3063 4.69634ZM17.3642 4.01301C16.8982 3.77288 16.4558 3.67277 16.0419 3.71984C15.5836 3.77256 15.1634 4.00272 14.7877 4.4012C14.3657 2.7925 13.6501 1.49189 12.7701 0.732341C14.7096 1.197 16.3533 2.3983 17.3642 4.01301ZM14.6927 7.76115C14.6927 8.19355 14.677 8.62174 14.6532 9.04679C13.5489 8.23639 12.4037 8.25022 11.2381 9.0931V4.98493C12.2229 3.98979 13.2335 3.97314 14.3985 4.93642C14.5878 5.80479 14.6927 6.75948 14.6927 7.76115ZM10.7265 0.541889V1.36785H11.2381V0.539974C12.5037 0.709123 13.5965 2.12157 14.1978 4.15548C13.1618 3.5237 12.1563 3.57067 11.2381 4.29208V2.55686H10.7265V4.30152C9.77878 3.56471 8.78887 3.51487 7.77096 4.1516C8.38156 2.08958 9.48392 0.709948 10.7265 0.541889ZM10.7265 14.4145V17.7994H9.97596C9.4206 16.9374 8.82627 15.8086 8.33627 14.4012C9.1286 13.6945 9.89329 13.699 10.7265 14.4145ZM8.16136 13.874C7.7837 12.6681 7.4901 11.2714 7.35485 9.68121C8.49801 8.71304 9.5749 8.73498 10.7265 9.7506V13.7651C9.86411 13.1874 8.98948 13.2237 8.16136 13.874ZM9.70221 18.3202H12.1599V19.6348H9.70221V18.3202ZM11.9991 17.7994H11.2381V14.4179C12.1006 13.7092 12.8692 13.6976 13.6385 14.3835C13.1243 15.8729 12.5077 17.0123 11.9991 17.7994ZM9.18826 0.733804C8.30309 1.49327 7.58004 2.80152 7.15936 4.45774C6.32774 3.81003 5.43589 3.69966 4.53276 4.12708C5.53591 2.45729 7.20648 1.21029 9.18826 0.733804ZM3.52067 7.76115C3.52067 6.79719 3.71741 5.87732 4.07141 5.03538C5.12139 4.18056 6.09051 4.17697 7.03079 5.02352C6.97612 5.29283 6.92628 5.56703 6.88762 5.85123L7.39442 5.92269C7.4405 5.58402 7.50071 5.25886 7.56941 4.94349C8.69642 3.98322 9.70582 3.99849 10.7265 4.98793V9.08395C9.59026 8.24738 8.44556 8.23911 7.31209 9.05698C7.28834 8.63658 7.27202 8.20756 7.27202 7.76113H6.76049C6.76049 8.22152 6.77757 8.66381 6.80228 9.09746C5.75008 8.27551 4.65312 8.2516 3.5889 9.0231C3.54475 8.61453 3.52067 8.19424 3.52067 7.76115ZM3.66946 9.61626C4.75241 8.69637 5.76327 8.76022 6.84079 9.81842L6.85528 9.83264C6.98333 11.256 7.23568 12.5262 7.56063 13.6478C6.68871 13.1854 5.92383 13.2638 5.27718 13.8817C4.52142 12.658 3.93148 11.2383 3.66946 9.61626ZM8.84411 17.7994C7.7364 16.9259 6.54068 15.7711 5.56315 14.3227C5.975 13.8915 6.63999 13.5525 7.80233 14.4176C8.26639 15.7904 8.82792 16.9164 9.36917 17.7994H8.84411ZM13.7145 20.1556V21.1196H12.8415V21.6404H13.7145V23.7743C13.7145 24.1629 13.404 24.4792 13.0223 24.4792H8.83985C8.4582 24.4792 8.14773 24.1629 8.14773 23.7743V21.6404H12.1853V21.1196H8.14775V20.1556L13.7145 20.1556ZM13.1406 17.7994H12.6059C13.1069 16.9818 13.68 15.8611 14.1602 14.4395C15.1319 13.7094 15.6711 13.6823 16.3983 14.3549C15.4264 15.7933 14.24 16.9362 13.1406 17.7994ZM16.6826 13.9164C15.8631 13.1984 15.1602 13.2307 14.4054 13.6559C14.5239 13.2458 14.6344 12.8161 14.7319 12.3626L14.2321 12.2512C14.1095 12.8216 13.9665 13.3545 13.8114 13.8539C12.9921 13.2107 12.1295 13.1841 11.2381 13.7741V9.75379C12.4264 8.73841 13.502 8.71206 14.6096 9.6753C14.5705 10.1374 14.5204 10.5944 14.453 11.041L14.9586 11.1201C15.0221 10.699 15.0697 10.2686 15.1086 9.83421L15.1245 9.81868C16.2064 8.75993 17.2173 8.69684 18.2969 9.61897C18.0351 11.2586 17.442 12.6881 16.6826 13.9164ZM15.1626 9.0973C15.1878 8.65551 15.2042 8.21044 15.2042 7.76113C15.2042 6.79969 15.1079 5.87918 14.9333 5.02873C15.2889 4.54554 15.6703 4.2866 16.0993 4.23737C16.6078 4.17894 17.2039 4.42868 17.8677 4.97245C18.2385 5.83123 18.444 6.77325 18.444 7.76113C18.444 8.19429 18.4202 8.6144 18.3767 9.02272C17.3055 8.23493 16.2276 8.25825 15.1626 9.0973ZM18.8734 19.9396H19.3849C19.3849 19.2668 19.9225 18.7195 20.5832 18.7195V18.1987C19.9699 18.1987 19.4309 18.5291 19.1292 19.0244C18.8275 18.5291 18.2885 18.1987 17.6751 18.1987V18.7195C18.3359 18.7195 18.8734 19.2668 18.8734 19.9396ZM21.1776 23.3762H21.6891C21.6891 22.936 22.0409 22.5778 22.4733 22.5778V22.057C22.0479 22.057 21.6697 22.2668 21.4333 22.5902C21.1969 22.2668 20.8188 22.057 20.3934 22.057V22.5778C20.8258 22.5778 21.1776 22.936 21.1776 23.3762Z" fill="#ECE9E2"/>
<path d="M3.08845 19.9396H3.59997C3.59997 19.2668 4.13749 18.7195 4.79828 18.7195V18.1987C4.18496 18.1987 3.64595 18.5292 3.34422 19.0244C3.0425 18.5292 2.50349 18.1987 1.89017 18.1987V18.7195C2.55093 18.7195 3.08845 19.2668 3.08845 19.9396ZM0 22.057V22.5778C0.432486 22.5778 0.784284 22.936 0.784284 23.3762H1.29581C1.29581 22.936 1.64761 22.5778 2.07997 22.5778V22.057C1.65461 22.057 1.27643 22.2668 1.04003 22.5902C0.80364 22.2668 0.425355 22.057 0 22.057Z" fill="#ECE9E2"/>
<path d="M14.3012 21.279H13.7897V23.3761H14.3012V21.279Z" fill="#ECE9E2"/>
<path d="M14.3012 20.2495H13.7897V20.7484H14.3012V20.2495Z" fill="#ECE9E2"/>
</svg>
