<svg width="17" height="21" viewBox="0 0 17 21" fill="none" xmlns="http://www.w3.org/2000/svg">
<path d="M8.0629 20.2707C2.10401 11.8075 0.997925 10.9389 0.997925 7.82857C0.997925 3.56808 4.52332 0.114288 8.87214 0.114288C13.221 0.114288 16.7464 3.56808 16.7464 7.82857C16.7464 10.9389 15.6403 11.8075 9.68138 20.2707C9.29034 20.8241 8.45391 20.824 8.0629 20.2707ZM8.87214 11.0429C10.6842 11.0429 12.1531 9.60378 12.1531 7.82857C12.1531 6.05336 10.6842 4.61429 8.87214 4.61429C7.06013 4.61429 5.59122 6.05336 5.59122 7.82857C5.59122 9.60378 7.06013 11.0429 8.87214 11.0429Z" fill="#E94F37"/>
</svg>
