<svg width="19" height="19" viewBox="0 0 19 19" fill="none" xmlns="http://www.w3.org/2000/svg">
<path d="M16.5458 9.18334C16.4667 9.10418 16.4667 9.02501 16.3875 8.94584L14.0125 6.57084C13.6958 6.25418 13.2208 6.25418 12.9042 6.57084C12.5875 6.88751 12.5875 7.36251 12.9042 7.67918L13.9333 8.70834H10.2917C9.81667 8.70834 9.5 9.02501 9.5 9.50001C9.5 9.97501 9.81667 10.2917 10.2917 10.2917H13.9333L12.9042 11.3208C12.5875 11.6375 12.5875 12.1125 12.9042 12.4292C13.0625 12.5875 13.3 12.6667 13.4583 12.6667C13.6167 12.6667 13.8542 12.5875 14.0125 12.4292L16.3875 10.0542C16.4667 9.97501 16.5458 9.89584 16.5458 9.81668C16.625 9.57918 16.625 9.42084 16.5458 9.18334Z" fill="#ECE9E2"/>
<path d="M12.2708 14.3292C11.4 14.8042 10.45 15.0417 9.5 15.0417C6.4125 15.0417 3.95833 12.5875 3.95833 9.5C3.95833 6.4125 6.4125 3.95833 9.5 3.95833C10.45 3.95833 11.4 4.19583 12.2708 4.67083C12.6667 4.90833 13.1417 4.75 13.3792 4.35417C13.6167 3.95833 13.4583 3.48333 13.0625 3.24583C11.9542 2.69167 10.7667 2.375 9.5 2.375C5.54167 2.375 2.375 5.54167 2.375 9.5C2.375 13.4583 5.54167 16.625 9.5 16.625C10.7667 16.625 11.9542 16.3083 13.0625 15.675C13.4583 15.4375 13.5375 14.9625 13.3792 14.5667C13.1417 14.25 12.6667 14.0917 12.2708 14.3292Z" fill="#ECE9E2"/>
</svg>
