<svg width="23" height="25" viewBox="0 0 23 25" fill="none" xmlns="http://www.w3.org/2000/svg">
<path d="M14.4578 11.625C15.0252 10.9149 15.3375 10.0343 15.3442 9.12499C15.3442 8.03429 14.9115 6.98826 14.1412 6.21702C13.3708 5.44578 12.326 5.0125 11.2366 5.0125C10.1472 5.0125 9.10244 5.44578 8.33211 6.21702C7.56178 6.98826 7.12902 8.03429 7.12902 9.12499C7.13579 10.0343 7.44803 10.9149 8.01546 11.625C6.90257 12.303 6.02945 13.3127 5.51843 14.5125C5.44691 14.6647 5.40682 14.8298 5.40055 14.9979C5.39428 15.166 5.42197 15.3337 5.48196 15.4908C5.54195 15.648 5.63301 15.7914 5.74967 15.9124C5.86633 16.0335 6.00621 16.1298 6.16091 16.1954C6.31561 16.2611 6.48196 16.2948 6.64999 16.2946C6.81801 16.2943 6.98426 16.2601 7.13878 16.194C7.29329 16.1279 7.43289 16.0313 7.5492 15.9099C7.66552 15.7885 7.75616 15.6448 7.8157 15.4875C8.10265 14.8159 8.57925 14.2429 9.18697 13.8387C9.79469 13.4346 10.5071 13.2169 11.2366 13.2125C11.9683 13.2145 12.6834 13.431 13.2936 13.8353C13.9037 14.2396 14.3823 14.814 14.67 15.4875C14.7656 15.7134 14.9255 15.9062 15.1298 16.0418C15.334 16.1774 15.5736 16.2498 15.8187 16.25C15.9857 16.2469 16.1508 16.213 16.3056 16.15C16.6101 16.0205 16.8508 15.7753 16.9748 15.4683C17.0989 15.1613 17.0962 14.8175 16.9673 14.5125C16.453 13.3109 15.5753 12.301 14.4578 11.625ZM11.2366 10.7125C10.9176 10.7125 10.6057 10.6176 10.3406 10.4398C10.0754 10.2621 9.86901 10.0095 9.74749 9.71415C9.62596 9.41877 9.5948 9.09391 9.65797 8.78078C9.72113 8.46765 9.87577 8.18036 10.1023 7.95536C10.3288 7.73035 10.6169 7.57777 10.9301 7.51697C11.2434 7.45617 11.5676 7.48989 11.8617 7.61385C12.1557 7.73782 12.4064 7.94644 12.5819 8.21326C12.7573 8.48007 12.8497 8.79305 12.8472 9.11249C12.8439 9.53798 12.6728 9.94493 12.3711 10.2446C12.0694 10.5443 11.6616 10.7125 11.2366 10.7125ZM18.7277 0H3.74554C2.75216 0 1.79947 0.395088 1.09704 1.09835C0.394619 1.80161 0 2.75544 0 3.75V17.5C0 18.4945 0.394619 19.4484 1.09704 20.1516C1.79947 20.8549 2.75216 21.25 3.74554 21.25H6.9792L10.3502 24.6375C10.4668 24.7533 10.6052 24.845 10.7573 24.9072C10.9094 24.9694 11.0723 25.0009 11.2366 25C11.5342 25 11.822 24.8936 12.0482 24.7L16.0684 21.25H18.7277C19.7211 21.25 20.6738 20.8549 21.3762 20.1516C22.0786 19.4484 22.4733 18.4945 22.4733 17.5V3.75C22.4733 2.75544 22.0786 1.80161 21.3762 1.09835C20.6738 0.395088 19.7211 0 18.7277 0ZM19.9762 17.5C19.9762 17.8315 19.8447 18.1494 19.6106 18.3839C19.3764 18.6183 19.0588 18.75 18.7277 18.75H15.6064C15.3089 18.75 15.0211 18.8564 14.7949 19.05L11.2991 22.05L8.37753 19.1125C8.26087 18.9966 8.12252 18.905 7.9704 18.8428C7.81828 18.7806 7.6554 18.749 7.49109 18.75H3.74554C3.41442 18.75 3.09685 18.6183 2.86271 18.3839C2.62857 18.1494 2.49703 17.8315 2.49703 17.5V3.75C2.49703 3.41848 2.62857 3.10053 2.86271 2.86611C3.09685 2.63169 3.41442 2.5 3.74554 2.5H18.7277C19.0588 2.5 19.3764 2.63169 19.6106 2.86611C19.8447 3.10053 19.9762 3.41848 19.9762 3.75V17.5Z" fill="#ECE9E2"/>
</svg>
