<svg width="22" height="20" viewBox="0 0 22 20" fill="none" xmlns="http://www.w3.org/2000/svg">
<path d="M10.7921 0C4.83033 0 0 4.47581 0 10C0 15.5242 4.83033 20 10.7921 20C16.7538 20 21.5842 15.5242 21.5842 10C21.5842 4.47581 16.7538 0 10.7921 0ZM10.7921 18.0645C5.98351 18.0645 2.08879 14.4556 2.08879 10C2.08879 5.54435 5.98351 1.93548 10.7921 1.93548C15.6006 1.93548 19.4954 5.54435 19.4954 10C19.4954 14.4556 15.6006 18.0645 10.7921 18.0645ZM13.4814 13.8548L9.78685 11.3669C9.65195 11.2742 9.57362 11.129 9.57362 10.9758V4.35484C9.57362 4.08871 9.80861 3.87097 10.0958 3.87097H11.4883C11.7756 3.87097 12.0105 4.08871 12.0105 4.35484V10.0685L14.9174 12.0282C15.1524 12.1855 15.2003 12.4879 15.0306 12.7056L14.2125 13.75C14.0428 13.9637 13.7164 14.0121 13.4814 13.8548Z" fill="#44BBA4"/>
</svg>
